<?xml version="1.0" encoding="utf-8"?>
<!-- Generator: Adobe Illustrator 23.0.3, SVG Export Plug-In . SVG Version: 6.00 Build 0)  -->
<svg version="1.1" id="Icons" xmlns="http://www.w3.org/2000/svg" xmlns:xlink="http://www.w3.org/1999/xlink" x="0px" y="0px"
	 viewBox="0 0 32 32" style="enable-background:new 0 0 32 32;" xml:space="preserve">
<style type="text/css">
	.st0{fill:none;stroke:#000000;stroke-width:2;stroke-linecap:round;stroke-linejoin:round;stroke-miterlimit:10;}
</style>
<path class="st0" d="M8.7,27.3c0.7,1,1.9,1.7,3.3,1.7h5h3c2.2,0,4-1.8,4-4V14"/>
<path class="st0" d="M26.5,25L26.5,25c-1.4,0-2.5-1.1-2.5-2.5v-5c0-1.4,1.1-2.5,2.5-2.5h0c1.4,0,2.5,1.1,2.5,2.5v5
	C29,23.9,27.9,25,26.5,25z"/>
<line class="st0" x1="13" y1="19" x2="13" y2="25"/>
<line class="st0" x1="19" y1="19" x2="19" y2="25"/>
<path class="st0" d="M23.8,6.5c-1.2-0.7-2.2-0.6-3.2-0.3c0,0,0,0,0,0c-0.3-0.3-0.6-0.6-0.9-0.9c0,0,0,0-0.1,0
	c-0.1-0.1-0.3-0.2-0.5-0.3c0,0-0.1-0.1-0.1-0.1c-0.1-0.1-0.3-0.2-0.4-0.2c-0.1,0-0.1-0.1-0.2-0.1c-0.1-0.1-0.3-0.1-0.4-0.2
	c-0.1,0-0.1-0.1-0.2-0.1c-0.1,0-0.3-0.1-0.4-0.1c-0.1,0-0.1,0-0.2-0.1c-0.1,0-0.3-0.1-0.4-0.1c-0.1,0-0.1,0-0.2,0
	c-0.2,0-0.4,0-0.7,0c-0.3,0-0.5,0-0.7,0.1c-0.1,0-0.1,0-0.2,0c-0.2,0-0.4,0.1-0.5,0.1c-0.1,0-0.1,0-0.2,0c-0.5,0.1-0.9,0.3-1.3,0.6
	c0,0,0,0-0.1,0l0,0c-0.8,0.5-1.5,1.1-2,1.9c-0.9-0.6-2-0.9-3.2-0.7C5.9,6.4,4.3,7.9,4.1,9.8c-0.3,1.8,0.6,3.5,1.9,4.4v4.5
	c0,1.9-0.7,3.8-2.1,5.1c-0.8,0.7-1.2,1.9-0.8,3.1c0.4,1.3,1.6,2,3,2h0.1C7.7,29,9,27.7,9,26.2V16.1c0-0.6,0.4-1.2,1-1.4c0,0,0,0,0,0
	c0.9-0.3,1.8-0.2,2.6,0.3c0.2,0.2,0.5,0.3,0.7,0.4c0,0,0.1,0,0.1,0.1c0.5,0.2,1,0.4,1.5,0.5c0.1,0,0.1,0,0.2,0
	c0.3,0,0.5,0.1,0.8,0.1c0.2,0,0.4,0,0.7,0c0.1,0,0.1,0,0.2,0c0.1,0,0.3,0,0.4-0.1c0.1,0,0.1,0,0.2-0.1c0.1,0,0.3-0.1,0.4-0.1
	c0.1,0,0.1-0.1,0.2-0.1c0.1-0.1,0.3-0.1,0.4-0.2c0.1,0,0.1-0.1,0.2-0.1c0.1-0.1,0.3-0.1,0.4-0.2c0,0,0.1-0.1,0.1-0.1
	c0.2-0.1,0.3-0.2,0.5-0.3c0,0,0,0,0.1,0c0.3-0.3,0.6-0.6,0.9-0.9c0,0,0,0,0,0c0.4,0.1,0.9,0.2,1.3,0.2c2.3,0,4.1-1.9,4-4.2
	C25.9,8.4,25,7.2,23.8,6.5z"/>
</svg>
