<?xml version="1.0" encoding="utf-8"?>
<!-- Generator: Adobe Illustrator 23.0.3, SVG Export Plug-In . SVG Version: 6.00 Build 0)  -->
<svg version="1.1" id="Icons" xmlns="http://www.w3.org/2000/svg" xmlns:xlink="http://www.w3.org/1999/xlink" x="0px" y="0px"
	 viewBox="0 0 32 32" style="enable-background:new 0 0 32 32;" xml:space="preserve">
<g>
	<circle cx="12" cy="16" r="5"/>
	<path d="M12,6C6.5,6,2,10.5,2,16s4.5,10,10,10s10-4.5,10-10S17.5,6,12,6z M12,23c-3.9,0-7-3.1-7-7s3.1-7,7-7s7,3.1,7,7
		S15.9,23,12,23z"/>
	<path d="M30,10.5V5c0-0.6-0.4-1-1-1s-1,0.4-1,1v5.5c0,0.2,0,0.4,0,0.5h-1V5c0-0.6-0.4-1-1-1s-1,0.4-1,1v6h-1c0-0.2,0-0.4,0-0.5V5
		c0-0.6-0.4-1-1-1s-1,0.4-1,1v5.5c0,1.9,0.5,3.4,1.4,4.3c0.7,0.8,1,1.8,0.9,2.7l-1,7.3c-0.1,0.8,0.1,1.6,0.6,2.2S25.2,28,26,28
		s1.5-0.3,2.1-0.9s0.8-1.4,0.6-2.2l-1-7.3c-0.1-1,0.2-2,0.9-2.8C29.5,13.8,30,12.3,30,10.5z"/>
</g>
</svg>
