<?xml version="1.0" encoding="utf-8"?>
<!-- Generator: Adobe Illustrator 18.0.0, SVG Export Plug-In . SVG Version: 6.00 Build 0)  -->
<!DOCTYPE svg PUBLIC "-//W3C//DTD SVG 1.1//EN" "http://www.w3.org/Graphics/SVG/1.1/DTD/svg11.dtd">
<svg version="1.1" id="Layer_1" xmlns="http://www.w3.org/2000/svg" xmlns:xlink="http://www.w3.org/1999/xlink" x="0px" y="0px"
	 viewBox="0 0 61.5 62" enable-background="new 0 0 61.5 62" xml:space="preserve">
<g>
	<path d="M11.2,12.3h-0.9v-0.9c0-0.5-0.4-0.8-0.8-0.8s-0.8,0.4-0.8,0.8v0.9H7.6c-0.5,0-0.8,0.4-0.8,0.8c0,0.5,0.4,0.8,0.8,0.8h0.9
		v0.9c0,0.5,0.4,0.8,0.8,0.8s0.8-0.4,0.8-0.8v-0.9h0.9c0.5,0,0.8-0.4,0.8-0.8C12,12.6,11.6,12.3,11.2,12.3L11.2,12.3z M11.2,12.3"/>
	<path d="M56.8,12.3h-0.9v-0.9c0-0.5-0.4-0.8-0.8-0.8c-0.5,0-0.8,0.4-0.8,0.8v0.9h-0.9c-0.5,0-0.8,0.4-0.8,0.8
		c0,0.5,0.4,0.8,0.8,0.8h0.9v0.9c0,0.5,0.4,0.8,0.8,0.8c0.5,0,0.8-0.4,0.8-0.8v-0.9h0.9c0.5,0,0.8-0.4,0.8-0.8
		C57.6,12.6,57.2,12.3,56.8,12.3L56.8,12.3z M56.8,12.3"/>
	<g>
		<defs>
			<rect id="SVGID_1_" x="2.7" y="4.5" width="59.1" height="56"/>
		</defs>
		<clipPath id="SVGID_2_">
			<use xlink:href="#SVGID_1_"  overflow="visible"/>
		</clipPath>
		<path clip-path="url(#SVGID_2_)" d="M34,6.4H33V5.5c0-0.5-0.4-0.8-0.8-0.8c-0.5,0-0.8,0.4-0.8,0.8v0.9h-0.9
			c-0.5,0-0.8,0.4-0.8,0.8s0.4,0.8,0.8,0.8h0.9V9c0,0.5,0.4,0.8,0.8,0.8C32.7,9.8,33,9.5,33,9V8.1H34c0.5,0,0.8-0.4,0.8-0.8
			S34.4,6.4,34,6.4L34,6.4z M34,6.4"/>
		<path clip-path="url(#SVGID_2_)" d="M30.7,21.4l-13.5-5.1c-1-0.4-2,0.1-2.5,1l-5,10.4c-0.3,0.6-0.6,1.3-0.7,2c0,0,0,0,0,0
			c-0.4,1.7-0.4,3.3,0,4.9c0,0,0,0,0,0c0,0.1,0,0.2,0.1,0.2c0,0.1,0.1,0.2,0.1,0.3c0,0,0,0.1,0,0.1c0.1,0.2,0.1,0.4,0.2,0.6
			c0,0,0,0.1,0,0.1c0,0.1,0.1,0.1,0.1,0.2c0,0.1,0.1,0.2,0.1,0.3c0,0.1,0,0.1,0.1,0.2c0.2,0.3,0.3,0.6,0.5,0.9
			c0,0.1,0.1,0.1,0.1,0.2c0,0.1,0.1,0.1,0.1,0.2c0,0.1,0.1,0.1,0.2,0.2c0,0.1,0.1,0.1,0.1,0.2c0.1,0.1,0.1,0.2,0.2,0.2
			c0,0,0.1,0.1,0.1,0.1c0.1,0.1,0.2,0.2,0.3,0.3c0,0,0,0,0.1,0.1c0.5,0.5,1,1,1.6,1.4c0,0,0,0,0,0c0.1,0.1,0.3,0.2,0.4,0.3
			c0,0,0,0,0.1,0c0.1,0.1,0.2,0.2,0.4,0.2c0,0,0.1,0,0.1,0.1c0.1,0.1,0.2,0.1,0.4,0.2c0,0,0.1,0,0.1,0.1c0,0,0.1,0,0.1,0l-4.1,10.9
			c-0.2-0.1-0.3-0.1-0.5,0l-6.3,1.6c-0.5,0.1-0.8,0.5-0.8,1c0,0.5,0.3,0.9,0.7,1.1l11.5,4.4c0.1,0,0.3,0.1,0.4,0.1
			c0.3,0,0.7-0.1,0.9-0.4c0.3-0.4,0.3-0.9,0.1-1.3l-3.7-5.4c-0.1-0.1-0.2-0.3-0.4-0.3L16.3,42c0.9,0.2,1.8,0.4,2.7,0.4
			c1.6,0,3.2-0.4,4.6-1.1c2.6-1.3,4.5-3.6,5.2-6.4l3.1-11.1C32.2,22.8,31.7,21.8,30.7,21.4L30.7,21.4z M13.7,58l-7.9-3l4.2-1.1
			l1.2,0.5L13.7,58z M30.3,23.3l-1.1,4l-10.9,1c-0.5,0-0.8,0.5-0.8,0.9c0,0.5,0.5,0.8,0.9,0.8l10.2-0.9l-1.5,5.3
			c-0.6,2.3-2.2,4.2-4.3,5.3c-2.1,1.1-4.6,1.2-6.8,0.4c-0.1-0.1-0.3-0.1-0.4-0.2c0,0-0.1,0-0.1,0c-0.1,0-0.2-0.1-0.3-0.1
			c0,0-0.1,0-0.1,0c-0.1-0.1-0.2-0.1-0.3-0.2c0,0,0,0-0.1,0c-0.1-0.1-0.2-0.1-0.3-0.2c0,0,0,0,0,0c-0.5-0.3-0.9-0.7-1.4-1.1
			c0,0,0,0,0,0c-0.1-0.1-0.2-0.2-0.3-0.3c0,0,0,0,0,0c-0.2-0.2-0.4-0.4-0.5-0.7c0,0,0,0-0.1-0.1C12.1,37.1,12,37,12,36.9
			c0,0-0.1-0.1-0.1-0.1c0-0.1-0.1-0.1-0.1-0.2c0,0-0.1-0.1-0.1-0.1c0-0.1-0.1-0.1-0.1-0.2c0,0,0-0.1-0.1-0.1
			c-0.1-0.1-0.1-0.2-0.2-0.4c0,0,0-0.1,0-0.1c0-0.1-0.1-0.2-0.1-0.3c0,0,0-0.1,0-0.1c0-0.1-0.1-0.2-0.1-0.3c0,0,0,0,0-0.1
			c-0.4-1.3-0.5-2.7-0.3-4.1l3.5-0.3c0.5,0,0.8-0.5,0.8-0.9c0-0.5-0.5-0.8-0.9-0.8L11.1,29c0.1-0.2,0.1-0.4,0.2-0.5l5-10.4
			c0-0.1,0.1-0.1,0.2-0.1c0,0,0.1,0,0.1,0L30.1,23C30.3,23.1,30.3,23.2,30.3,23.3L30.3,23.3z M30.3,23.3"/>
	</g>
	<path d="M61.7,54.8c0-0.5-0.4-0.9-0.8-1l-6.3-1.6c-0.2,0-0.4,0-0.5,0l-4.1-10.9c0,0,0.1,0,0.1,0c0,0,0.1,0,0.1-0.1
		c0.1-0.1,0.2-0.1,0.4-0.2c0,0,0.1,0,0.1-0.1c0.1-0.1,0.2-0.1,0.4-0.2c0,0,0,0,0.1,0c0.1-0.1,0.3-0.2,0.4-0.3c0,0,0,0,0,0
		c0.6-0.4,1.1-0.9,1.6-1.4c0,0,0,0,0.1-0.1c0.1-0.1,0.2-0.2,0.3-0.3c0,0,0.1-0.1,0.1-0.1c0.1-0.1,0.1-0.2,0.2-0.2
		c0-0.1,0.1-0.1,0.1-0.2c0.1-0.1,0.1-0.1,0.1-0.2c0-0.1,0.1-0.1,0.1-0.2c0-0.1,0.1-0.1,0.1-0.2c0.2-0.3,0.4-0.6,0.5-0.9
		c0,0,0-0.1,0.1-0.1c0-0.1,0.1-0.2,0.1-0.3c0-0.1,0.1-0.1,0.1-0.2c0,0,0-0.1,0-0.1c0.1-0.2,0.2-0.4,0.2-0.6c0,0,0-0.1,0-0.1
		c0-0.1,0.1-0.2,0.1-0.3c0-0.1,0-0.2,0.1-0.2c0,0,0,0,0,0c0.4-1.6,0.4-3.2,0-4.9c0,0,0,0,0,0c-0.2-0.7-0.4-1.4-0.7-2l-5-10.4
		c-0.4-0.9-1.5-1.3-2.5-1l-13.5,5.1c-1,0.4-1.5,1.4-1.2,2.4l3.1,11.1c0.2,0.6,0.4,1.2,0.7,1.7c1,2,2.6,3.6,4.6,4.6
		c0.3,0.1,0.5,0.2,0.8,0.3c1.2,0.5,2.5,0.8,3.8,0.8c0.9,0,1.8-0.1,2.7-0.4l4.1,10.9c-0.2,0.1-0.3,0.2-0.4,0.3l-3.7,5.4
		c-0.3,0.4-0.3,0.9,0,1.3c0.2,0.3,0.5,0.4,0.9,0.4c0.1,0,0.3,0,0.4-0.1L61,55.9C61.5,55.7,61.7,55.3,61.7,54.8L61.7,54.8z
		 M49.6,39.5c-0.1,0.1-0.2,0.1-0.3,0.2c0,0-0.1,0-0.1,0c-0.1,0-0.2,0.1-0.3,0.1c0,0-0.1,0-0.1,0c-0.1,0.1-0.3,0.1-0.4,0.2
		c-2.2,0.8-4.7,0.7-6.8-0.4c-2.1-1.1-3.7-3-4.3-5.3l-1.5-5.3l2.7,0.2c0.5,0,0.9-0.3,0.9-0.8c0-0.5-0.3-0.9-0.8-0.9l-3.3-0.3l-1.1-4
		c0-0.1,0-0.2,0.1-0.3l13.5-5.1c0.1,0,0.2,0,0.3,0.1l5,10.4c0.1,0.2,0.2,0.4,0.2,0.5L43.1,28c-0.5,0-0.9,0.3-0.9,0.8
		c0,0.5,0.3,0.9,0.8,0.9l10.8,1c0.2,1.4,0.1,2.8-0.3,4.1c0,0,0,0,0,0.1c0,0.1-0.1,0.2-0.1,0.3c0,0,0,0.1,0,0.1
		c0,0.1-0.1,0.2-0.1,0.3c0,0,0,0.1,0,0.1c-0.1,0.1-0.1,0.2-0.2,0.4c0,0,0,0.1-0.1,0.1c0,0.1-0.1,0.1-0.1,0.2c0,0-0.1,0.1-0.1,0.1
		c0,0.1-0.1,0.1-0.1,0.2c0,0-0.1,0.1-0.1,0.1c-0.1,0.1-0.1,0.2-0.2,0.3c0,0,0,0-0.1,0.1c-0.2,0.2-0.4,0.4-0.5,0.7c0,0,0,0,0,0
		c-0.1,0.1-0.2,0.2-0.3,0.3c0,0,0,0,0,0C51,38.6,50.5,39,50,39.3c0,0,0,0,0,0C49.9,39.4,49.8,39.4,49.6,39.5
		C49.6,39.5,49.6,39.5,49.6,39.5L49.6,39.5z M50.7,58l2.4-3.6l1.2-0.5l4.2,1.1L50.7,58z M50.7,58"/>
</g>
</svg>
