<?xml version="1.0" encoding="UTF-8" standalone="no"?> <svg id="Glyph" xmlns="http://www.w3.org/2000/svg" viewBox="0 0 64 64"><path d="M11.783,17.811a7.444,7.444,0,0,1,1.374-.6h0a7.345,7.345,0,0,1,.892-.22L10.34,5.457A1.711,1.711,0,1,0,7.132,6.638Z"/><path d="M11,48a4.981,4.981,0,0,1,3.5,1.438A4.993,4.993,0,0,1,22.9,52H41.112a4.984,4.984,0,0,1,9.321-3.276,4.917,4.917,0,0,1,2.011-.685A15.282,15.282,0,0,0,53,44a16.774,16.774,0,0,0-5.747-12.3,76.723,76.723,0,0,1-6.139,9.2l-.375.482a.8.8,0,0,1-.082.093A8,8,0,0,1,29.343,30.167a.92.92,0,0,1,.094-.082l.482-.375c1.818-1.414,3.711-2.739,5.653-3.986A29.813,29.813,0,0,0,29,25a30.134,30.134,0,0,0-5.439.5l.332,1.034a1,1,0,0,1-.675,1.267l-.367.106,1.506,4.68-1.9.613-1.524-4.737-2.834.82,1.062,3.305-1.9.611-1.08-3.36-2.835.819.92,2.862-1.9.613-.939-2.918-.218.062A16.952,16.952,0,0,0,5,44a15.384,15.384,0,0,0,1.565,6.741A4.986,4.986,0,0,1,11,48Zm36-8h2v2h2v2H49V42H47ZM23,44h2v2H23Zm-3-3h2v2H20ZM8,42h2V40h2v2H10v2H8Z"/><path d="M30.715,31.624A6,6,0,0,0,39.2,40.108l.336-.43A75.053,75.053,0,0,0,47.345,27.3a.874.874,0,0,1,.05-.089,2.74,2.74,0,0,0-3.783-3.782c-.029.018-.058.035-.088.05a74.729,74.729,0,0,0-12.377,7.809Z"/><path d="M10.641,21.77a5.322,5.322,0,0,0-.333,4.091l1.041,3.291,10.325-2.986L20.52,22.575a5.364,5.364,0,0,0-9.879-.8Z"/><path d="M8.184,52h5.632a2.982,2.982,0,0,0-5.632,0Z"/><path d="M49.669,51.408a1,1,0,0,1-.715-.822A2.988,2.988,0,1,0,43.194,52H55.816a2.969,2.969,0,0,0-5.1-.911A1,1,0,0,1,49.669,51.408Z"/><path d="M57.445,14.832a1,1,0,0,1-.415-.59l-.846-3.386-3.855-.77L50,12.414v2.172l1.707,1.707a1,1,0,0,1,0,1.414l-4.059,4.059A4.381,4.381,0,0,1,49.189,23.4l4.1-4.1a1,1,0,0,1,1.414,0L56.414,21h2.172L60,19.586V16.535Z"/><path d="M15.646,51.183A4.929,4.929,0,0,1,15.9,52h4.917a2.962,2.962,0,0,0-5.17-.817Z"/><path d="M10.083,58H53.917A6.158,6.158,0,0,0,59.7,54H4.3A6.159,6.159,0,0,0,10.083,58Z"/></svg>