<?xml version="1.0" encoding="utf-8"?>
<!-- Generator: Adobe Illustrator 23.0.3, SVG Export Plug-In . SVG Version: 6.00 Build 0)  -->
<svg version="1.1" id="Icons" xmlns="http://www.w3.org/2000/svg" xmlns:xlink="http://www.w3.org/1999/xlink" x="0px" y="0px"
	 viewBox="0 0 32 32" style="enable-background:new 0 0 32 32;" xml:space="preserve">
<style type="text/css">
	.st0{fill:none;stroke:#000000;stroke-width:2;stroke-linecap:round;stroke-linejoin:round;stroke-miterlimit:10;}
</style>
<path class="st0" d="M31,6.9h-2.8h0c-4,0-7.8,2.2-9.9,5.8l0,0c-0.5,0.8-1.7,0.8-2.1-0.1l-2.7-6.1C12.9,5,11.5,4,9.9,4h0
	C7.8,4,6,5.9,6,8.2v7.2c0,4.4,2.4,8.4,6.1,10.4l0.1,0.1c3.1,1.6,6.8,1.6,9.8,0l0.1-0.1c2.8-1.5,4.8-4.1,5.7-7.2
	c0.7-2.7,1.7-5.3,3.1-7.6l0.1-0.1h-2.1L31,6.9z"/>
<circle class="st0" cx="10" cy="8" r="0"/>
<polygon class="st0" points="6,7 1,10 6,13 "/>
<path class="st0" d="M4,12.3c0,1.1-0.4,2.1-1,3l0,0C2.2,16.4,3,18,4.3,18h0C5.3,18,6,17.3,6,16.3"/>
<path class="st0" d="M13,4h-3v0c0-1.7,1.3-3,3-3h3v0C16,2.7,14.7,4,13,4z"/>
<line class="st0" x1="19" y1="18" x2="24" y2="18"/>
<path class="st0" d="M12,16v0.5c0,3,2.5,5.5,5.5,5.5h0c2.5,0,4.6-1.7,5.3-4"/>
<line class="st0" x1="15" y1="31" x2="20" y2="31"/>
<line class="st0" x1="18" y1="31" x2="18" y2="27"/>
</svg>
