<?xml version="1.0" encoding="utf-8"?>
<!-- Generator: Adobe Illustrator 16.0.0, SVG Export Plug-In . SVG Version: 6.00 Build 0)  -->
<!DOCTYPE svg PUBLIC "-//W3C//DTD SVG 1.0//EN" "http://www.w3.org/TR/2001/REC-SVG-20010904/DTD/svg10.dtd">
<svg version="1.0" id="Layer_1" xmlns="http://www.w3.org/2000/svg" xmlns:xlink="http://www.w3.org/1999/xlink" x="0px" y="0px"
	 width="100px" height="100px" viewBox="0 0 100 100" enable-background="new 0 0 100 100" xml:space="preserve">
<path d="M66.67,23.334c-6.442,0-12.275,2.241-16.501,5.859l-9.259,7.935c-2.415,2.068-5.749,3.35-9.427,3.35h-8.148
	c-7.365,0-13.333,5.117-13.335,11.426V65.24c0,6.309,5.97,11.426,13.335,11.426H66.67c12.881,0,23.33-8.952,23.33-20V43.334
	C90,32.289,79.551,23.334,66.67,23.334z M66.67,69.999H23.335c-3.615,0-6.668-2.181-6.668-4.759v-3.49
	c1.968,0.983,4.227,1.582,6.668,1.582H66.67c6.481,0,12.341-2.266,16.569-5.924C82.751,64.406,75.544,69.999,66.67,69.999z
	 M66.67,56.666H23.335c-3.615,0-6.668-2.182-6.668-4.76c0-2.584,3.054-4.762,6.668-4.762h8.148c5.146,0,10.034-1.759,13.765-4.953
	l9.261-7.937C57.712,31.513,62.031,30,66.67,30c9.189,0,16.663,5.981,16.663,13.333C83.333,50.686,75.859,56.666,66.67,56.666z"/>
<ellipse cx="66.667" cy="43.334" rx="6.25" ry="4.998"/>
</svg>
