<svg id="Слой_2" data-name="Слой 2" xmlns="http://www.w3.org/2000/svg" viewBox="0 0 101 101"><title>Artboard 2 copy 10 копия 11</title><path d="M98.85,50.2c-6-16.92-21.33-28.29-38.06-28.29a44.44,44.44,0,0,0-26.37,8.61,36.05,36.05,0,0,0-2.82,2.37,8,8,0,0,0-5.8-1.19,8.25,8.25,0,0,0-5.31,3.55A10.33,10.33,0,0,0,19,39.11a5.94,5.94,0,0,1-2.27,4c-.48.41-.94.78-1.4,1.14-2.68,2.15-5.21,4.17-5.21,9.62,0,4.15,3.44,6.93,7.41,7.81A11.85,11.85,0,0,1,12.14,63C7,63,4.25,59.57,4.25,53.34c0-15.79,17.26-27,33.24-28.29a1.5,1.5,0,0,0-.25-3c-17.31,1.42-36,13.79-36,31.28,0,7.55,3.7,12.21,9.95,12.63a1.5,1.5,0,0,0,.31,0H87.58a12,12,0,0,0,9.78-5.08A11.62,11.62,0,0,0,98.85,50.2ZM13.09,53.83c0-4,1.63-5.31,4.09-7.28.48-.38,1-.78,1.47-1.21a8.86,8.86,0,0,0,3.25-5.59A7.49,7.49,0,0,1,23,36.91a5.24,5.24,0,0,1,3.36-2.26,4.89,4.89,0,0,1,3.09.46,27.19,27.19,0,0,0-7.19,18.23A9.44,9.44,0,0,1,20.59,59a1.49,1.49,0,0,0-.37-.05C16.71,58.94,13.09,57,13.09,53.83Zm81.82,5.36A8.87,8.87,0,0,1,87.58,63H20.88a12,12,0,0,0,4.37-9.66c0-13.67,13.59-28.42,35.54-28.42,15.46,0,29.62,10.57,35.23,26.29A8.65,8.65,0,0,1,94.91,59.19Z"/><circle cx="42.5" cy="52.5" r="2.5"/><circle cx="73.5" cy="36.5" r="2.5"/><circle cx="82.5" cy="45.5" r="2.5"/></svg>