<?xml version="1.0" encoding="UTF-8" standalone="no"?> <svg xmlns="http://www.w3.org/2000/svg" viewBox="0 0 64 64"><g id="Layer_7" data-name="Layer 7"><path d="M59.72,49.86a4,4,0,0,0-5.2-.38l-6.1-6.1.82-.82a1,1,0,0,0,0-1.41,14.36,14.36,0,0,1-4.37-9.3c-.63-8.27-1.51-14.56-7.08-20.13C29.71,3.64,14.15-.29,6.92,6.94c-7.67,7.5-2.51,24,4.79,30.86,5.57,5.57,11.85,6.45,20.13,7.09a14.27,14.27,0,0,1,9.29,4.37,1,1,0,0,0,1.42,0l.83-.83,6.1,6.1a4,4,0,1,0,7.18,2.12C60.22,57,62.32,52.33,59.72,49.86ZM41.83,47.14A16.35,16.35,0,0,0,32,42.89c-7.84-.6-13.79-1.42-18.87-6.5-7.39-7.39-11-21.78-4.78-28,7.57-6.83,21.4-1.72,28,4.78,5.09,5.09,5.91,11,6.51,18.87a16.35,16.35,0,0,0,4.25,9.85Zm16.47,7a1.93,1.93,0,0,1-2.64.13,1,1,0,0,0-1.48,1.32,2,2,0,1,1-2.8-.15,1,1,0,0,0,.22-1.58L44.79,47,47,44.8l6.8,6.8a1,1,0,0,0,1.57-.2A2,2,0,1,1,58.3,54.09Z"/><path d="M17.78,9.46a1.16,1.16,0,0,0,0,2.31A1.16,1.16,0,0,0,17.78,9.46Z"/><path d="M26.47,12.57a1.15,1.15,0,0,0,0-2.3A1.15,1.15,0,0,0,26.47,12.57Z"/><path d="M16.94,17.43a1.15,1.15,0,0,0,0,2.3A1.15,1.15,0,0,0,16.94,17.43Z"/><path d="M29.91,18.12a1.16,1.16,0,0,0,0,2.31A1.16,1.16,0,0,0,29.91,18.12Z"/><path d="M22.84,15.55a1.15,1.15,0,0,0-2.3,0A1.15,1.15,0,0,0,22.84,15.55Z"/><path d="M7.7,17.21a1.15,1.15,0,0,0,0,2.3A1.15,1.15,0,0,0,7.7,17.21Z"/><path d="M22.84,28.91a1.15,1.15,0,0,0,0,2.3A1.15,1.15,0,0,0,22.84,28.91Z"/><path d="M26.93,28.91a1.15,1.15,0,0,0,0,2.3A1.15,1.15,0,0,0,26.93,28.91Z"/><path d="M25.78,32.41a1.16,1.16,0,0,0,0,2.31A1.16,1.16,0,0,0,25.78,32.41Z"/></g></svg>